<svg xmlns="http://www.w3.org/2000/svg" xmlns:xlink="http://www.w3.org/1999/xlink" version="1.1" x="0px" y="0px" viewBox="0 0 72 90" enable-background="new 0 0 72 72" xml:space="preserve"><g><path fill="#000000" d="M7.5,9.1c0.3,0.2,0.7,0.2,1,0.2c0.8,0,1.6-0.5,2-1.3c0.1-0.2,0.2-0.3,0.4-0.4c0.4-0.1,1-0.1,1.6-0.1l3,0.1   c1.3,0.1,2.9,0.1,4.5-0.4c1.3-0.5,2.4-1.3,3.3-2c1-0.8,1.2-2.2,0.5-3.3c-0.7-1.1-2.1-1.3-3.1-0.5c-0.7,0.6-1.4,1.1-2.1,1.3   C17.7,3,16.7,3,15.7,3l-3-0.1c-1,0-2.1-0.1-3.4,0.4C8.1,3.7,7,4.7,6.5,5.9C5.9,7.1,6.4,8.5,7.5,9.1z"/><path fill="#000000" d="M50.1,37.5v-7.1c0-0.3-0.3-0.5-0.5-0.4l-22.4,8.8c-0.2,0.1-0.5-0.1-0.5-0.4v-8.1c0-0.3-0.3-0.5-0.5-0.4   l-13.1,5.2c-0.2,0.1-0.5-0.1-0.5-0.4V12.5c0-0.2-0.2-0.4-0.4-0.4H5.7c-0.2,0-0.4,0.2-0.4,0.4v25.7c0,0,0,0.1,0,0.1l-4,1.6   C1.1,39.9,1,40.1,1,40.3v30.4C1,70.8,1.2,71,1.4,71h69.3c0.2,0,0.4-0.2,0.4-0.4V30.4c0-0.3-0.3-0.5-0.5-0.4l-19.9,7.8   C50.4,38,50.1,37.8,50.1,37.5z M19.7,58.9H8.3c-0.2,0-0.4-0.2-0.4-0.4v-6.2c0-3.4,2.3-6.4,5.6-6.7c3.6-0.3,6.6,2.6,6.6,6.4v6.5   C20.1,58.7,19.9,58.9,19.7,58.9z M41.7,58.9H30.3c-0.2,0-0.4-0.2-0.4-0.4v-6.2c0-3.4,2.3-6.4,5.6-6.7c3.6-0.3,6.6,2.6,6.6,6.4v6.5   C42.1,58.7,41.9,58.9,41.7,58.9z M63.7,58.9H52.3c-0.2,0-0.4-0.2-0.4-0.4v-6.2c0-3.4,2.3-6.4,5.6-6.7c3.6-0.3,6.6,2.6,6.6,6.4v6.5   C64.1,58.7,63.9,58.9,63.7,58.9z"/></g><text x="0" y="87" fill="#000000" font-size="5px" font-weight="bold" font-family="'Helvetica Neue', Helvetica, Arial-Unicode, Arial, Sans-serif">Created by Creative Stall</text><text x="0" y="92" fill="#000000" font-size="5px" font-weight="bold" font-family="'Helvetica Neue', Helvetica, Arial-Unicode, Arial, Sans-serif">from the Noun Project</text></svg>