<svg xmlns="http://www.w3.org/2000/svg" xmlns:xlink="http://www.w3.org/1999/xlink" version="1.1" x="0px" y="0px" viewBox="0 0 91 113.75" style="enable-background:new 0 0 91 91;" xml:space="preserve"><g><path d="M65.7,48.9c0.6,0,1.1-0.3,1.4-0.8c0.9-1.5,0.2-3.4-2-5.7c-1.7-1.8-4.1-3.7-6.9-5.3c-2.8-1.7-5.6-3-7.9-3.7   c-0.8-0.2-1.4-0.4-2.1-0.4c2-6.3,2-6.4,2-6.7c0-0.2,0-0.3-2.8-14.8c-0.2-0.8-0.8-1.4-1.7-1.4c-4.6,0-4.8,11.1-4.8,13.4   c0,1.5,0.1,7.1,1.6,10.5c-6.4,1.1-6.4,1.1-6.7,1.3c-0.2,0.1-0.3,0.1-11.8,9.3c-0.6,0.5-0.8,1.4-0.4,2.1c0.6,1.1,1.7,1.6,3.4,1.6   c0.7,0,1.6-0.1,2.6-0.3c2.4-0.5,5.3-1.6,8.2-3.1c1-0.5,4-2.1,6.4-4.1v42.4c0,0.9,0.8,1.7,1.7,1.7s1.7-0.8,1.7-1.7V39.5   c3.3,3.8,3.4,3.8,3.6,4c0.2,0.1,0.3,0.2,14.1,5.2C65.3,48.8,65.5,48.9,65.7,48.9z M36.1,41.7c-2.6,1.4-4.8,2.2-6.5,2.6   c3.3-2.6,6.7-5.3,7.7-6.1c0.8-0.2,3.1-0.6,5.4-1C41.4,38.5,39.2,40.1,36.1,41.7z M45.2,31.3c-0.5-1.7-0.9-4.4-0.9-7.9   c0-2.9,0.3-5.3,0.7-7c0.8,4.2,1.6,8.4,1.9,9.7C46.6,26.9,45.9,29.1,45.2,31.3z M52.9,40.6c-0.6-0.6-2.1-2.4-3.6-4.1   c1.7,0.5,4.2,1.5,7.2,3.3c2.5,1.5,4.4,3,5.6,4.2C58.1,42.6,54.1,41.1,52.9,40.6z"/><path d="M29.5,52.2c-2.2-0.4-5.5-1-6.6-1.1c-0.5-0.4-1.4-1.1-2.5-1.9c0.5-3.7,0.5-3.8,0.4-4c0-0.2,0-0.2-2.7-7   c-0.3-0.9-1.3-1.3-2.2-1c-0.9,0.3-1.3,1.3-1,2.2c0.8,2.1,2,5.2,2.4,6.2c-0.1,0.6-0.2,1.8-0.4,3c-3.5,1.3-3.5,1.3-3.7,1.5   c-0.2,0.1-0.2,0.1-4.9,5.6c-0.6,0.7-0.5,1.8,0.2,2.4c0.3,0.3,0.7,0.4,1.1,0.4c0.5,0,0.9-0.2,1.3-0.6c1.5-1.7,3.7-4.2,4.4-5.1   c0.6-0.2,1.7-0.6,2.9-1.1c2.9,2.3,3,2.3,3.3,2.5c0.2,0.1,0.2,0.1,7.3,1.3c0.1,0,0.2,0,0.3,0c0.8,0,1.5-0.6,1.7-1.4   C31.1,53.3,30.5,52.4,29.5,52.2z"/><path d="M83.7,54c-2.2-0.5-5.5-1.2-6.5-1.4c-0.5-0.4-1.4-1.2-2.4-2c0.6-3.7,0.6-3.7,0.6-4c0-0.2,0-0.2-2.4-7.1   c-0.3-0.9-1.3-1.3-2.1-1c-0.9,0.3-1.4,1.3-1,2.1c0.7,2.2,1.8,5.3,2.2,6.3c-0.1,0.6-0.3,1.8-0.5,3C68,51,68,51,67.7,51.2   c-0.2,0.1-0.2,0.1-5.2,5.4c-0.6,0.7-0.6,1.7,0.1,2.4c0.3,0.3,0.7,0.5,1.2,0.5c0.4,0,0.9-0.2,1.2-0.5c1.6-1.7,3.9-4.1,4.6-4.8   c0.6-0.2,1.8-0.6,3-1c2.8,2.5,2.9,2.5,3.1,2.6c0.2,0.1,0.2,0.1,7.3,1.6c0.1,0,0.2,0,0.4,0c0.8,0,1.5-0.5,1.6-1.3   C85.2,55.1,84.6,54.2,83.7,54z"/><path d="M18.7,54.2c-0.9,0-1.7,0.8-1.7,1.7v18.6c0,0.9,0.8,1.7,1.7,1.7s1.7-0.8,1.7-1.7V55.9C20.4,54.9,19.6,54.2,18.7,54.2z"/><path d="M72.6,55.4c-0.9,0-1.7,0.8-1.7,1.7v17.4c0,0.9,0.8,1.7,1.7,1.7s1.7-0.8,1.7-1.7V57.1C74.3,56.2,73.5,55.4,72.6,55.4z"/></g><text x="0" y="106" fill="#000000" font-size="5px" font-weight="bold" font-family="'Helvetica Neue', Helvetica, Arial-Unicode, Arial, Sans-serif">Created by BomSymbol</text><text x="0" y="111" fill="#000000" font-size="5px" font-weight="bold" font-family="'Helvetica Neue', Helvetica, Arial-Unicode, Arial, Sans-serif">from the Noun Project</text></svg>