<svg xmlns="http://www.w3.org/2000/svg" xmlns:xlink="http://www.w3.org/1999/xlink" version="1.1" x="0px" y="0px" viewBox="0 0 72 90" enable-background="new 0 0 72 72" xml:space="preserve"><path fill="#000000" d="M70.5,55.8h-0.2c-0.4,0-0.8,0.4-0.8,0.8v6.9c0,3.6-2.9,6.5-6.5,6.5h-6.1c-3.6,0-6.5-2.9-6.5-6.5V43.2  c0-0.7-0.5-1.2-1.2-1.2h-1.3c-0.2,0-0.3-0.1-0.3-0.3V36c0-1.1-0.9-2-2-2h-8.7c-1.1,0-2,0.9-2,2v19.4c0,0.2-0.2,0.4-0.4,0.4h-2  c-0.2,0-0.4-0.2-0.4-0.4V29.2c0-0.5,0.4-0.8,0.8-0.8h24.1c0.5,0,0.8,0.4,0.8,0.8V36c0,0.2-0.1,0.4-0.3,0.5c-1.9,0.9-3.2,2.8-3.2,5.1  v22.9c0,1.4,1.1,2.5,2.5,2.5H63c1.4,0,2.5-1.1,2.5-2.5V41.6c0-2.2-1.3-4.2-3.2-5.1c-0.2-0.1-0.3-0.3-0.3-0.5v-9.6c0-1.1-0.9-2-2-2  H30.2c-1.1,0-2,0.9-2,2v29c0,0.2-0.2,0.4-0.4,0.4h-1.6c-0.5,0-0.9-0.3-0.9-0.8L19.8,1.4c-0.1-0.5-0.5-0.9-1-0.9h-5.5  c-0.5,0-0.9,0.4-1,0.9L6.9,55c-0.1,0.5-0.5,0.8-0.9,0.8H1.5c-0.5,0-1,0.4-1,1v13.8c0,0.5,0.4,1,1,1h69.1c0.5,0,1-0.4,1-1V56.7  C71.5,56.2,71.1,55.8,70.5,55.8z M40.8,44.6v10.3c0,0.5-0.4,1-1,1h-0.5c-0.2,0-0.4-0.2-0.4-0.4V38.7c0-0.4,0.3-0.7,0.7-0.7h3.3  c0.4,0,0.7,0.3,0.7,0.7v3c0,0.2-0.1,0.3-0.3,0.3l0,0C41.9,42,40.8,43.2,40.8,44.6z"/><text x="0" y="87" fill="#000000" font-size="5px" font-weight="bold" font-family="'Helvetica Neue', Helvetica, Arial-Unicode, Arial, Sans-serif">Created by Creative Stall</text><text x="0" y="92" fill="#000000" font-size="5px" font-weight="bold" font-family="'Helvetica Neue', Helvetica, Arial-Unicode, Arial, Sans-serif">from the Noun Project</text></svg>